<?xml version="1.0" standalone="no"?>
<!DOCTYPE svg PUBLIC "-//W3C//DTD SVG 20010904//EN"
 "http://www.w3.org/TR/2001/REC-SVG-20010904/DTD/svg10.dtd">
<svg version="1.0" xmlns="http://www.w3.org/2000/svg"
 width="78.000000pt" height="78.000000pt" viewBox="0 0 78.000000 78.000000"
 preserveAspectRatio="xMidYMid meet">
<metadata>
Created by potrace 1.11, written by Peter Selinger 2001-2013
</metadata>
<g transform="translate(0.000000,78.000000) scale(0.100000,-0.100000)"
fill="#000000" stroke="none">
<path d="M380 760 c0 -14 -7 -20 -22 -21 -140 -4 -288 -141 -305 -279 -5 -40
-11 -54 -25 -58 -24 -6 -23 -32 1 -32 14 0 20 -10 24 -40 17 -130 147 -255
284 -276 37 -5 43 -10 43 -30 0 -15 6 -24 15 -24 9 0 15 9 15 25 0 19 5 25 23
25 32 0 120 34 159 61 72 51 128 137 143 222 5 27 12 37 26 37 25 0 25 20 0
27 -14 3 -20 17 -24 53 -16 137 -145 268 -282 287 -35 4 -45 10 -45 24 0 11
-7 19 -15 19 -8 0 -15 -9 -15 -20z m-2 -42 c-3 -7 -17 -14 -32 -15 -46 -3
-132 -49 -174 -92 -46 -47 -76 -107 -87 -168 -10 -60 -28 -55 -20 5 17 125
124 241 252 271 54 13 65 13 61 -1z m158 -23 c66 -29 129 -93 160 -159 27 -60
41 -140 22 -134 -6 2 -14 20 -16 39 -5 51 -45 129 -87 171 -43 43 -126 87
-172 90 -19 1 -33 8 -33 15 0 18 62 7 126 -22z m-33 -40 c21 -9 58 -34 82 -56
153 -141 106 -384 -89 -463 -186 -76 -390 68 -382 269 8 197 209 326 389 250z
m-412 -327 c34 -127 129 -219 244 -235 27 -3 44 -10 42 -17 -9 -28 -135 14
-200 68 -49 40 -101 130 -110 189 -8 51 10 47 24 -5z m625 -12 c-30 -127 -140
-226 -278 -250 -20 -3 -28 0 -28 10 0 8 10 14 23 14 104 0 239 119 262 230 9
41 13 50 25 50 4 0 3 -24 -4 -54z"/>
<path d="M337 595 c-101 -35 -159 -120 -152 -222 12 -164 197 -251 336 -158
36 25 55 33 63 25 20 -20 22 -9 13 51 l-10 61 -41 -6 c-23 -3 -52 -5 -65 -5
-24 -1 -24 -1 -5 -22 18 -20 18 -21 -6 -40 -28 -21 -95 -25 -132 -8 -61 27
-89 126 -53 187 41 68 139 85 198 34 16 -14 16 -17 1 -33 -14 -16 -12 -17 28
-24 24 -3 50 -9 60 -11 17 -5 21 7 34 89 l5 38 -24 -16 c-21 -14 -25 -14 -30
-1 -10 24 -92 66 -139 70 -24 2 -60 -2 -81 -9z"/>
</g>
</svg>
